<svg id="Layer_1" version="1.1" viewBox="0 0 24 24" xml:space="preserve" xmlns="http://www.w3.org/2000/svg" enable-background="new 0 0 24 24"><path d="m9.3 21.3.5.3c.4.2.9.3 1.4.3h6.9c1.8 0 3.3-1.3 3.6-3l1.5-7.8c.3-1.4-.8-2.6-2.2-2.6h-4l1.7-4.7c.1-.2.1-.4.1-.6 0-1-.8-1.9-1.9-1.9-.6 0-1.1.3-1.5.7L9.5 9.8h-.2M8.2 22.7H1.8c-.6 0-1-.4-1-1V9.2c0-.6.4-1 1-1h6.5c.6 0 1 .4 1 1v12.6c-.1.5-.5.9-1.1.9z" fill="none" stroke="#d4f2f4" stroke-width="1.5" stroke-linecap="round" stroke-linejoin="round" stroke-miterlimit="10" class="stroke-000000"></path></svg>